<svg xmlns="http://www.w3.org/2000/svg" x="0px" y="0px" viewBox="6.530250072479248 6.530999660491943 34.938751220703125 34.93800354003906" enable-background="new 0 0 48 48">
<g>
	<g>
		
			<path fill="#FFFFFF" stroke="#536DFE" stroke-width="1" stroke-linecap="round" stroke-linejoin="round" stroke-miterlimit="10" d="    M7.031,29.656v5.656c0,3.124,2.532,5.656,5.656,5.656h0c3.124,0,5.656-2.532,5.656-5.656v-5.656H7.031z"/>
		
			<rect x="7.031" y="18.344" transform="matrix(6.123234e-17 -1 1 6.123234e-17 -11.3126 36.6874)" fill="#FFFFFF" stroke="#536DFE" stroke-width="1" stroke-linecap="round" stroke-linejoin="round" stroke-miterlimit="10" width="11.313" height="11.313"/>
		
			<path fill="#FFFFFF" stroke="#536DFE" stroke-width="1" stroke-linecap="round" stroke-linejoin="round" stroke-miterlimit="10" d="    M7.031,8.556v9.787h11.313V8.556c0-0.842-0.683-1.525-1.525-1.525H8.556C7.714,7.031,7.031,7.714,7.031,8.556z"/>
	</g>
</g>
<g>
	<g>
		
			<path fill="#FFFFFF" stroke="#000000" stroke-width="1" stroke-linecap="round" stroke-linejoin="round" stroke-miterlimit="10" d="    M12.687,27.313l-4,4c-2.209,2.209-2.209,5.79,0,7.999l0,0c2.209,2.209,5.79,2.209,7.999,0l4-4L12.687,27.313z"/>
		
			<rect x="15.03" y="21.657" transform="matrix(0.7071 -0.7071 0.7071 0.7071 -13.2545 22.6276)" fill="#FFFFFF" stroke="#000000" stroke-width="1" stroke-linecap="round" stroke-linejoin="round" stroke-miterlimit="10" width="11.313" height="11.313"/>
		
			<path fill="#FFFFFF" stroke="#000000" stroke-width="1" stroke-linecap="round" stroke-linejoin="round" stroke-miterlimit="10" d="    M27.607,12.393l-6.921,6.921l7.999,7.999l6.921-6.921c0.596-0.596,0.596-1.561,0-2.157l-5.842-5.842    C29.169,11.798,28.203,11.798,27.607,12.393z"/>
	</g>
</g>
<g>
	<g>
		
			<path fill="#FFFFFF" stroke="#536DFE" stroke-width="1" stroke-linecap="round" stroke-linejoin="round" stroke-miterlimit="10" d="    M18.344,29.656h-5.656c-3.124,0-5.656,2.532-5.656,5.656v0c0,3.124,2.532,5.656,5.656,5.656h5.656V29.656z"/>
		
			<rect x="18.344" y="29.656" fill="#FFFFFF" stroke="#536DFE" stroke-width="1" stroke-linecap="round" stroke-linejoin="round" stroke-miterlimit="10" width="11.313" height="11.313"/>
		
			<path fill="#FFFFFF" stroke="#536DFE" stroke-width="1" stroke-linecap="round" stroke-linejoin="round" stroke-miterlimit="10" d="    M39.444,29.656h-9.787v11.313h9.787c0.842,0,1.525-0.683,1.525-1.525v-8.262C40.969,30.339,40.286,29.656,39.444,29.656z"/>
	</g>
	
		<circle fill="none" stroke="#536DFE" stroke-width="1" stroke-linecap="round" stroke-linejoin="round" stroke-miterlimit="10" cx="12.687" cy="35.313" r="0.724"/>
</g>
</svg>