<?xml version="1.0" encoding="UTF-8"?>
<svg id="a" data-name="Layer 1" xmlns="http://www.w3.org/2000/svg" viewBox="0 0 808.022 104.003">
  <path d="M728.248,39.003c3.045,1.402,5.941,3.686,8.827,5.445,5.407,3.331,10.909,6.496,16.506,9.496-3.235,1.799-6.432,3.665-9.589,5.598l-15.873,9.406c.076-9.983-.076-19.962.129-29.945Z" fill="#c12b2d"/>
  <path d="M519.495,82.084c2.119-.146,4.473-.467,6.528.179.349.112.692.24,1.029.385.337.145.666.307.987.484.321.177.633.369.936.576.303.207.595.429.876.664s.55.484.807.745c.257.262.501.536.732.821.231.285.447.58.649.887.202.306.389.621.56.945.176.334.334.676.473,1.027.14.35.261.707.363,1.07s.185.731.248,1.103c.063.372.106.746.13,1.123.023.377.027.753.011,1.13-.016.377-.052.753-.107,1.126-.056.373-.131.742-.225,1.107-.095.365-.208.725-.341,1.078-1.447,3.801-4.2,5.472-7.698,7.131-2.063.333-3.901.557-5.948-.005-2.704-.743-4.932-2.457-6.294-4.913-.193-.354-.366-.717-.521-1.089-.155-.371-.291-.75-.408-1.136-.117-.385-.213-.776-.289-1.172-.077-.395-.133-.794-.169-1.195-.035-.401-.05-.803-.045-1.206.005-.403.031-.805.078-1.205.046-.4.113-.797.2-1.19.087-.393.194-.781.321-1.164,1.266-3.833,3.657-5.536,7.117-7.306Z" fill="#c12b2d"/>
  <path d="M580.995,21.722c10.486-.309,20.896.638,31.32.422l-.181,16.154c-11.025-.684-27.334-3.322-37.366,2.127-4.27,2.32-7.024,6.56-8.274,11.169-2.091,7.713-1.628,19.035,2.618,25.863,6.922,11.129,22.389,10.279,33.766,9.099,3.342-.347,7.272-1.334,10.566-.619l.567,1.178c.438,4.458.759,8.83.777,13.314-2.915.68-5.834,1.329-8.799,1.747-14.264,2.007-33.75,2.221-45.709-7.006-7.889-6.086-11.781-15.932-12.919-25.579-1.389-11.78-.529-26.07,7.247-35.659,6.948-8.568,15.783-11.102,26.387-12.21Z" fill="#c12b2d"/>
  <path d="M728.226,4.534c3.841,1.751,77.985,45.202,79.129,46.669.961,1.231.658,3.306.465,4.716-3.752,3.945-12.596,8.138-17.42,11.04l-44.899,26.923-17.631,10.088c.149-6.629.339-13.255.207-19.886,16.6-10.646,34.086-20.068,51.311-29.672-5.667-3.971-12.088-7.242-18.099-10.691-11.256-6.339-22.414-12.846-33.474-19.521l.411-19.666Z" fill="#c12b2d"/>
  <path d="M524.561,22.238c1.556-.026,2.397-.202,3.792.529-.098,2.786-29.757,69.745-33.521,79.619-7.386,1.146-16.048.179-23.568.107-8.553-20.571-16.323-41.557-24.289-62.36-2.507-5.864-5.048-11.707-7.268-17.688,6.825.065,13.655.233,20.47-.218,2.009,7.623,5.529,15.216,8.524,22.5l15.832,38.021c7.902-20.275,16.68-40.188,24.5-60.484,5.176.027,10.352.019,15.528-.026Z" fill="#343c44"/>
  <path d="M408.894,21.22c.499.003.997.01,1.495.023,10.354.284,20.896,3.137,28.13,10.977,9.638,10.447,10.354,24.774,9.964,38.218-20.319-.311-40.64-.43-60.962-.358,1.626,5.306,3.737,9.725,8.451,12.995,11.347,7.87,29.601,4.558,42.2,2.23,1.757-.642,3.312-1.013,5.045-.316,2.248,3.566.827,10.519.542,14.605-7.273,1.338-14.475,2.736-21.877,3.13-14.32.764-31.623.256-42.774-10.18-7.678-7.186-10.577-18.377-10.989-28.556-.457-11.296,1.466-23.148,9.471-31.686,8.36-8.918,19.624-10.789,31.304-11.082ZM404.891,36.73c-5.27,1.021-10.09,2.31-13.286,7.024-2.038,3.006-4.078,8.828-3.525,12.522,2.372,1.464,20.123.127,24.329.161,5.501.061,11.134.357,16.623.13-.989-6.227-2.413-12.111-7.801-16.086-4.472-3.299-10.869-4.481-16.34-3.751Z" fill="#343c44"/>
  <path d="M153.351,21.662l1.417-.021c12.069-.16,25.885.655,34.923,9.778,10.234,10.33,10.806,24.999,10.737,38.627-20.308,1.497-40.968-.56-61.335.356,1.066,3.849,2.503,7.206,5.376,10.068,8.91,8.873,26.51,6.548,38.176,6.438,3.764-.822,7.719-1.12,11.547-1.584.533,5.079.739,10.171.62,15.276-17.316,3.09-46.463,5.037-61.557-5.37-7.536-5.196-11.995-13.02-13.56-21.967-2.145-12.261-.211-26.422,7.105-36.708,6.883-9.678,15.21-12.931,26.551-14.893ZM156.213,37.694c-4.551.522-8.59,1.775-11.53,5.567-2.506,3.231-5.325,7.734-5.2,11.918.467.79.315.898,1.271,1.176,4.118,1.2,19.828.2,25.155.171l15.174.067c-1.438-6.362-2.356-12.162-8.305-16.018-4.805-3.115-11.016-3.395-16.565-2.881Z" fill="#343c44"/>
  <path d="M621.274,22.118c8.09.321,16.21.139,24.305.117,12.219-.034,27.729-1.356,37.186,7.973,3.634,3.584,5.734,8.182,6.905,13.084,1.962,8.215,1.37,17.347,1.454,25.756l.327,33.662c-11.581-.559-23.327-.141-34.93-.108-8.079.023-16.126.338-24.08-1.314-3.833-1.128-7.416-2.737-10.505-5.318-4.787-4-7.552-9.4-8.126-15.591-.687-7.412-.31-15.2,4.805-21.123,10.898-12.621,37.655-7.285,52.734-8.775l.708-.074c-.025-.076-.051-.151-.075-.227-.881-2.802-1.669-5.13-3.774-7.298-2.028-2.089-4.605-3.485-7.424-4.169-7.587-1.838-30.356-.412-39.507-.406.101-5.397.1-10.793-.003-16.189ZM657.448,65.273c-6.473.096-17.32-1.001-22.285,3.878-1.68,1.65-2.403,3.831-2.306,6.156.153,3.698,1.7,7.002,4.426,9.488,2.439,2.224,5.696,2.778,8.876,3.159,8.555.108,17.119.299,25.672.048-.129-7.693-.158-15.386-.087-23.079-4.76.075-9.544.056-14.296.35Z" fill="#c12b2d"/>
  <path d="M55.771,21.552l13.552-.244c6.955,18.138,12.875,36.699,19.241,55.053,7.499-17.782,11.784-36.902,19.238-54.687,6.42.255,12.852-.062,19.291.237-1.761,5.017-3.78,9.941-5.54,14.966-3.186,8.186-5.661,16.757-8.677,25.029-4.403,12.076-11.468,28.883-13.906,41-6.653-.227-13.299.118-19.952-.349-5.837-15.699-10.982-31.548-16.318-47.416-4.783,16.215-11.5,31.83-16.752,47.887-6.544-.127-13.088-.165-19.633-.115-1.524-6.967-4.148-13.924-6.309-20.726C13.619,62.084,5.824,41.527,0,21.484c6.553.122,13.12-.109,19.679-.008,4.662,11.861,8.313,24.429,12.112,36.599,1.819,5.823,3.359,11.914,5.824,17.491,5.166-18.368,12.145-35.936,18.156-54.014Z" fill="#343c44"/>
  <path d="M345.339.888c6.454.287,13.012.081,19.478.107-.283,33.936-.322,67.872-.115,101.809-16.906-.9-38.073,2.394-54.179-2.874-4.949-1.567-9.726-4.368-13.451-7.992-8.58-8.348-10.806-19.854-10.868-31.365-.055-10.255,2.276-20.218,9.745-27.65,13.007-12.941,32.727-10.984,49.524-10.938-.164-7.025-.1-14.069-.134-21.097ZM332.488,38.266c-7.994.085-15.224.22-21.3,6.327-4.743,4.767-6.249,11.061-6.092,17.595.168,7.041,1.71,13.815,7.117,18.765,2.365,2.165,5.04,3.236,7.968,4.382,8.376,1.289,16.669,1.171,25.114,1.158l-.006-48.118c-4.281-.188-8.517-.214-12.801-.109Z" fill="#343c44"/>
  <path d="M203.897.031c6.61-.092,13.218.113,19.831-.031-.036,7.355.04,14.733-.268,22.082.86-.064,1.711-.118,2.573-.148,15.515-.54,34.517-1.18,46.598,10.224,7.751,7.317,10.764,17.984,11.086,28.343.371,11.931-1.233,22.414-9.609,31.413-12.985,11.342-28.974,10.701-45.146,10.608l-24.648-.025L203.897.031ZM223.503,38.762c.048,15.87-.227,31.803.145,47.664,11.922-.099,23.893,1.421,34.565-4.88,5.051-5.108,6.544-11.275,6.483-18.268-.058-6.787-1.127-14.459-6.195-19.428-7.856-7.702-24.802-5.243-34.998-5.088Z" fill="#343c44"/>
</svg>